<svg xmlns="http://www.w3.org/2000/svg" xmlns:xlink="http://www.w3.org/1999/xlink" version="1.1" x="0px" y="0px" viewBox="0 0 100 100" style="enable-background:new 0 0 95 95;" xml:space="preserve"><path d="M94.98,82.4c-0.19-2.77-1.45-5.13-3.67-6.82L67.53,57.47c0.16-0.56,0.24-1.14,0.24-1.74c0-1.71-0.67-3.32-1.87-4.53  l-0.33-0.33c6.84-13.11,4.77-29.69-6.23-40.68c-13.55-13.55-35.61-13.55-49.16,0c-13.55,13.55-13.55,35.61,0,49.16  c6.78,6.78,15.68,10.16,24.58,10.16c5.54,0,11.08-1.31,16.1-3.94l0.34,0.34c1.21,1.21,2.82,1.87,4.53,1.87  c0.6,0,1.18-0.09,1.74-0.24l18.11,23.78c1.68,2.21,4.04,3.48,6.82,3.67c0.23,0.02,0.46,0.02,0.68,0.02c2.5,0,4.76-0.94,6.56-2.74  l2.61-2.61C94.22,87.68,95.16,85.18,94.98,82.4z M12.28,57.24c-12.4-12.4-12.4-32.56,0-44.96c6.2-6.2,14.34-9.3,22.48-9.3  c8.14,0,16.28,3.1,22.48,9.3C67.62,22.66,69.3,38.5,62.29,50.65c-0.28,0.48-0.57,0.96-0.87,1.42c-0.04,0.07-0.08,0.14-0.13,0.2  c-0.35,0.52-0.71,1.03-1.09,1.54c-0.12,0.15-0.24,0.31-0.35,0.46c-0.29,0.38-0.6,0.75-0.91,1.11c-0.13,0.15-0.25,0.29-0.38,0.44  c-0.42,0.47-0.85,0.94-1.3,1.39c-0.01,0.01-0.02,0.02-0.03,0.03c-0.01,0.01-0.02,0.02-0.03,0.03c-0.45,0.45-0.92,0.88-1.4,1.3  c-0.14,0.13-0.29,0.25-0.43,0.37c-0.37,0.31-0.74,0.62-1.12,0.91c-0.15,0.12-0.3,0.23-0.45,0.35c-0.49,0.37-0.99,0.73-1.51,1.07  c-0.09,0.06-0.18,0.12-0.27,0.17c-0.45,0.29-0.9,0.57-1.36,0.83C38.52,69.31,22.67,67.63,12.28,57.24z M53.73,63.89  c0.28-0.18,0.55-0.37,0.82-0.56c0.21-0.15,0.43-0.29,0.64-0.44c0.32-0.23,0.64-0.48,0.96-0.73c0.16-0.12,0.32-0.24,0.47-0.37  c0.37-0.3,0.73-0.61,1.09-0.93c0.1-0.08,0.2-0.16,0.29-0.25c0.45-0.41,0.9-0.83,1.34-1.27c0.44-0.44,0.86-0.88,1.27-1.34  c0.09-0.11,0.18-0.22,0.28-0.32c0.31-0.35,0.61-0.7,0.91-1.06c0.13-0.16,0.25-0.32,0.37-0.48c0.24-0.31,0.49-0.63,0.72-0.95  c0.15-0.2,0.28-0.41,0.42-0.61c0.2-0.29,0.4-0.57,0.59-0.86c0.04-0.06,0.08-0.12,0.12-0.18c0.51,0.61,0.79,1.38,0.79,2.19  c0,0.64-0.18,1.25-0.51,1.79c-0.03,0.06-0.07,0.11-0.1,0.17c-0.12,0.17-0.24,0.33-0.39,0.48l-5.64,5.64  c-0.15,0.15-0.32,0.28-0.49,0.4c-0.01,0-0.01,0.01-0.02,0.01c-1.23,0.81-2.98,0.76-4.12-0.19C53.6,63.98,53.66,63.93,53.73,63.89z   M90.16,87.55l-2.61,2.61c-1.36,1.36-3.02,1.99-4.95,1.86c-1.92-0.13-3.49-0.97-4.65-2.5L60.09,66.07c0.06-0.05,0.12-0.11,0.17-0.17  l5.64-5.64c0.06-0.06,0.11-0.11,0.17-0.17l23.44,17.86c1.53,1.17,2.37,2.73,2.5,4.65C92.14,84.52,91.52,86.19,90.16,87.55z   M53.55,53.55c10.36-10.36,10.36-27.22,0-37.58c-10.36-10.36-27.22-10.36-37.58,0c-10.36,10.36-10.36,27.22,0,37.58  c5.18,5.18,11.98,7.77,18.79,7.77S48.37,58.73,53.55,53.55z M18.07,51.45c-9.2-9.2-9.2-24.18,0-33.38c4.6-4.6,10.64-6.9,16.69-6.9  c6.04,0,12.09,2.3,16.69,6.9c9.2,9.2,9.2,24.18,0,33.38C42.25,60.65,27.27,60.65,18.07,51.45z"/></svg>