<?xml version="1.0" encoding="UTF-8"?>
<svg width="96" height="96" viewBox="0 0 96 96" xmlns="http://www.w3.org/2000/svg">
  <!-- Background -->
  <rect width="96" height="96" fill="transparent"/>
  
  <!-- Flag pole -->
  <rect x="20" y="20" width="4" height="56" fill="#999999"/>
  
  <!-- Checkered flag -->
  <g transform="translate(24, 20)">
    <!-- Flag outline -->
    <path d="M 0 0 Q 40 6 50 0 L 50 36 Q 40 42 0 36 Z" fill="none" stroke="#666666" stroke-width="2"/>
    
    <!-- Checkered pattern in grayscale -->
    <!-- Row 1 -->
    <rect x="0" y="0" width="10" height="9" fill="#666666"/>
    <rect x="10" y="0" width="10" height="9" fill="none" stroke="#666666" stroke-width="0.5"/>
    <rect x="20" y="0" width="10" height="9" fill="#666666"/>
    <rect x="30" y="0" width="10" height="9" fill="none" stroke="#666666" stroke-width="0.5"/>
    <rect x="40" y="0" width="10" height="9" fill="#666666"/>
    
    <!-- Row 2 -->
    <rect x="0" y="9" width="10" height="9" fill="none" stroke="#666666" stroke-width="0.5"/>
    <rect x="10" y="9" width="10" height="9" fill="#666666"/>
    <rect x="20" y="9" width="10" height="9" fill="none" stroke="#666666" stroke-width="0.5"/>
    <rect x="30" y="9" width="10" height="9" fill="#666666"/>
    <rect x="40" y="9" width="10" height="9" fill="none" stroke="#666666" stroke-width="0.5"/>
    
    <!-- Row 3 -->
    <rect x="0" y="18" width="10" height="9" fill="#666666"/>
    <rect x="10" y="18" width="10" height="9" fill="none" stroke="#666666" stroke-width="0.5"/>
    <rect x="20" y="18" width="10" height="9" fill="#666666"/>
    <rect x="30" y="18" width="10" height="9" fill="none" stroke="#666666" stroke-width="0.5"/>
    <rect x="40" y="18" width="10" height="9" fill="#666666"/>
    
    <!-- Row 4 -->
    <rect x="0" y="27" width="10" height="9" fill="none" stroke="#666666" stroke-width="0.5"/>
    <rect x="10" y="27" width="10" height="9" fill="#666666"/>
    <rect x="20" y="27" width="10" height="9" fill="none" stroke="#666666" stroke-width="0.5"/>
    <rect x="30" y="27" width="10" height="9" fill="#666666"/>
    <rect x="40" y="27" width="10" height="9" fill="none" stroke="#666666" stroke-width="0.5"/>
  </g>
  
  <!-- Weather indicator overlay -->
  <g transform="translate(56, 56)">
    <!-- Sun outline -->
    <circle cx="0" cy="0" r="10" fill="none" stroke="#666666" stroke-width="2"/>
    <path d="M 0 -16 L 0 -13 M 0 13 L 0 16 M -16 0 L -13 0 M 13 0 L 16 0 M -11 -11 L -9 -9 M 9 -9 L 11 -11 M 9 9 L 11 11 M -9 9 L -11 11" stroke="#666666" stroke-width="2" stroke-linecap="round"/>
    
    <!-- Small rain drops -->
    <path d="M -4 4 L -4 8" stroke="#666666" stroke-width="2" stroke-linecap="round"/>
    <path d="M 0 6 L 0 10" stroke="#666666" stroke-width="2" stroke-linecap="round"/>
    <path d="M 4 4 L 4 8" stroke="#666666" stroke-width="2" stroke-linecap="round"/>
  </g>
</svg>