<svg xmlns="http://www.w3.org/2000/svg" version="1.1" viewBox="0 0 100.0 100.0">
 <path d="m82.125 75.832v-51.664c0-6.375-5.207-11.582-11.582-11.582l-41.086-0.003907c-6.375 0-11.582 5.207-11.582 11.582v51.668c0 6.375 5.207 11.582 11.582 11.582h41.125c6.375 0.003907 11.543-5.207 11.543-11.582zm-58.5 0v-51.664c0-3.3 2.55-5.836 5.836-5.836h41.125c3.3 0 5.836 2.55 5.836 5.836v51.668c0 3.3-2.55 5.836-5.836 5.836l-41.129-0.003906c-3.343 0-5.832-2.55-5.832-5.836z" stroke-width="2" fill="currentColor"/>
 <path d="m65.543 27.5h-19.293c-1.65 0-3 1.35-3 3s1.35 3 3 3h19.293c1.65 0 3-1.35 3-3s-1.35-3-3-3z" stroke-width="2" fill="currentColor"/>
 <path d="m65.543 46.625h-19.293c-1.65 0-3 1.35-3 3s1.35 3 3 3h19.293c1.65 0 3-1.35 3-3s-1.35-3-3-3z" stroke-width="2" fill="currentColor"/>
 <path d="m65.543 65.75h-19.293c-1.65 0-3 1.35-3 3s1.35 3 3 3h19.293c1.65 0 3-1.35 3-3s-1.35-3-3-3z" stroke-width="2" fill="currentColor"/>
 <path d="m31.5 28.5c-1.1 0-2 0.9-2 2s0.9 2 2 2h5c1.1 0 2-0.9 2-2s-0.9-2-2-2h-5z" stroke-width="2" fill="currentColor"/>
 <path d="m31.5 47.625c-1.1 0-2 0.9-2 2s0.9 2 2 2h5c1.1 0 2-0.9 2-2s-0.9-2-2-2h-5z" stroke-width="2" fill="currentColor"/>
 <path d="m31.5 66.75c-1.1 0-2 0.9-2 2s0.9 2 2 2h5c1.1 0 2-0.9 2-2s-0.9-2-2-2h-5z" stroke-width="2" fill="currentColor"/>
</svg>