<svg xmlns="http://www.w3.org/2000/svg" xmlns:xlink="http://www.w3.org/1999/xlink" version="1.1" x="0px" y="0px" viewBox="0 0 100 100" style="enable-background:new 0 0 100 100;" xml:space="preserve">
  <g>
    <path d="M50,94.69c-0.26,0-0.52-0.08-0.74-0.23C41.1,88.74,33.48,82.3,26.47,75.22C11.23,59.74,3.5,45.17,3.5,31.93C3.49,17.24,15.4,5.32,30.09,5.31C37.7,5.31,44.95,8.56,50,14.25c9.76-10.99,26.57-11.98,37.56-2.23c5.69,5.05,8.94,12.3,8.94,19.91c0,13.24-7.73,27.81-22.96,43.29C66.52,82.3,58.9,88.74,50.74,94.46C50.52,94.61,50.26,94.69,50,94.69z M30.13,10.5C18.3,10.51,8.71,20.1,8.69,31.93c0,25.5,35,51.31,41.31,55.38c6.31-4.07,41.31-29.9,41.31-55.38c0.01-11.82-9.56-21.41-21.39-21.43c-6.58-0.01-12.79,3.02-16.83,8.18c-0.92,1.1-2.56,1.21-3.66,0.28c-0.1-0.1-0.19-0.19-0.28-0.28C45.92,13.51,39.71,10.49,30.13,10.5z" stroke-width="16" fill="currentColor"/>
    <path d="M57,67H43c-1.65,0-3-1.35-3-3V51H27c-1.65,0-3-1.35-3-3V35c0-1.65,1.35-3,3-3h13V19c0-1.65,1.35-3,3-3h14c1.65,0,3,1.35,3,3v13h13c1.65,0,3,1.35,3,3v13c0,1.65-1.35,3-3,3H60v13C60,65.65,58.65,67,57,67z M45,63h10V49c0-1.65,1.35-3,3-3h12v-9H58c-1.65,0-3-1.35-3-3V22H45v12c0,1.65-1.35,3-3,3H30v9h12c1.65,0,3,1.35,3,3V63z" stroke-width="16" fill="currentColor"/>
  </g>
</svg>